{"title":"The Muppets 2011 CAM XViD- DTRG","uid":6865875,"size":970750478,"categoryP":"video","categoryS":"movies","magnet":"?xt=urn:btih:cf3ac3844141724ab0ffe57e7c54ffc451941233&amp;dn=The+Muppets+2011+CAM+XViD-+DTRG&amp;tr=udp%3A%2F%2Ftracker.openbittorrent.com%3A80&amp;tr=udp%3A%2F%2Fopen.demonii.com%3A1337&amp;tr=udp%3A%2F%2Ftracker.coppersurfer.tk%3A6969&amp;tr=udp%3A%2F%2Fexodus.desync.com%3A6969","seeders":0,"leechers":1,"uploader":"MisterNobody","files":4,"time":1323100939,"description":"The Muppets 2011 CAM XViD DTRG\n\nFormat : AVI\nFormat/Info : Audio Video Interleave\nFile size : 917 MiB\nDuration : 1h 43mn\nOverall bit rate : 1 242 Kbps\nWriting library : VirtualDub build 32842/release\n\nVideo\nID : 0\nFormat : MPEG-4 Visual\nFormat profile : Advanced Simple@L5\nFormat settings, BVOP : 1\nFormat settings, QPel : No\nFormat settings, GMC : No warppoints\nFormat settings, Matrix : Default (H.263)\nMuxing mode : Packed bitstream\nCodec ID : XVID\nCodec ID/Hint : XviD\nDuration : 1h 43mn\nBit rate : 1 102 Kbps\nWidth : 624 pixels\nHeight : 262 pixels\nDisplay aspect ratio : 2.40:1\nFrame rate : 29.970 fps\nColor space : YUV\nChroma subsampling : 4:2:0\nBit depth : 8 bits\nScan type : Progressive\nCompression mode : Lossy\nBits/(Pixel*Frame) : 0.225\nStream size : 814 MiB (89%)\nWriting library : XviD 64\n\nAudio\nID : 1\nFormat : MPEG Audio\nFormat version : Version 1\nFormat profile : Layer 3\nCodec ID : 55\nCodec ID/Hint : MP3\nDuration : 1h 43mn\nBit rate mode : Constant\nBit rate : 128 Kbps\nChannel(s) : 2 channels\nSampling rate : 44.1 KHz\nCompression mode : Lossy\nStream size : 94.5 MiB (10%)\nAlignment : Split accross interleaves\nInterleave, duration : 33 ms (1.00 video frame)\nInterleave, preload duration : 500 ms\n\n &lt;a href=&quot;\nhttp://img585.imageshack.us/img585/3046/vlcsnap2011120418h12m50.png&quot; rel=&quot;nofollow&quot; target=&quot;_NEW&quot;&gt;\nhttp://img585.imageshack.us/img585/3046/vlcsnap2011120418h12m50.png&lt;/a&gt; &lt;a href=&quot;\nhttp://img190.imageshack.us/img190/5863/vlcsnap2011120418h03m43.png&quot; rel=&quot;nofollow&quot; target=&quot;_NEW&quot;&gt;\nhttp://img190.imageshack.us/img190/5863/vlcsnap2011120418h03m43.png&lt;/a&gt; &lt;a href=&quot;\nhttp://img9.imageshack.us/img9/549/vlcsnap2011120418h13m18.png&quot; rel=&quot;nofollow&quot; target=&quot;_NEW&quot;&gt;\nhttp://img9.imageshack.us/img9/549/vlcsnap2011120418h13m18.png&lt;/a&gt;","torrent":{"xt":"urn:btih:cf3ac3844141724ab0ffe57e7c54ffc451941233","amp;dn":"The+Muppets+2011+CAM+XViD-+DTRG","amp;tr":["udp%3A%2F%2Ftracker.openbittorrent.com%3A80","udp%3A%2F%2Fopen.demonii.com%3A1337","udp%3A%2F%2Ftracker.coppersurfer.tk%3A6969","udp%3A%2F%2Fexodus.desync.com%3A6969"],"infoHash":"cf3ac3844141724ab0ffe57e7c54ffc451941233","infoHashBuffer":{"type":"Buffer","data":[207,58,195,132,65,65,114,74,176,255,229,126,124,84,255,196,81,148,18,51]},"announce":[],"urlList":[]}}